<?xml version="1.0" encoding="UTF-8"?>
<svg id="Artwork" xmlns="http://www.w3.org/2000/svg" viewBox="0 0 241.81 151.13">
  <defs>
    <style>
      .cls-1 {
        fill: #fff;
        fill-rule: evenodd;
      }

      .cls-2 {
        fill: #ff5b24;
      }

      .cls-3 {
        fill: #363638;
      }
    </style>
  </defs>
  <rect class="cls-3" x="0" width="241.81" height="151.13" rx="24.18" ry="24.18"/>
  <rect class="cls-2" x="0" width="241.81" height="151.13" rx="24.18" ry="24.18"/>
  <path class="cls-1" d="M132.79,65.43c4.23,0,7.86-3.21,7.86-7.84h0c0-4.62-3.63-7.84-7.86-7.84s-7.86,3.21-7.86,7.84,3.63,7.84,7.86,7.84ZM143.07,78.07c-5.24,6.83-10.79,11.55-20.57,11.55h0c-9.98,0-17.74-6.03-23.79-14.87-2.42-3.62-6.15-4.42-8.87-2.51-2.52,1.81-3.12,5.63-.81,8.94,8.37,12.76,19.96,20.19,33.47,20.19,12.4,0,22.08-6.03,29.64-16.07,2.82-3.72,2.72-7.53,0-9.64-2.52-2.01-6.25-1.3-9.07,2.41Z"/>
</svg>