<?xml version="1.0" encoding="UTF-8"?>
<svg id="Artwork" xmlns="http://www.w3.org/2000/svg" version="1.1" viewBox="0 0 191.5 48.8">
  <!-- Generator: Adobe Illustrator 29.1.0, SVG Export Plug-In . SVG Version: 2.1.0 Build 142)  -->
  <defs>
    <style>
      .st0 {
        fill: #f26522;
      }
    </style>
  </defs>
  <path class="st0" d="M9.5,1l8.2,23.9L25.9,1h9.5l-14.1,35.5h-7.1L0,1h9.5Z"/>
  <path class="st0" d="M56.5,30.9c5.9,0,9.3-2.9,12.5-7.1,1.8-2.2,4-2.7,5.6-1.5s1.8,3.7,0,5.9c-4.7,6.1-10.6,9.8-18.2,9.8s-15.4-4.5-20.4-12.4c-1.5-2.1-1.1-4.3.5-5.5,1.6-1.1,4-.6,5.5,1.6,3.5,5.3,8.4,9,14.5,9ZM67.6,11.1c0,2.9-2.2,4.8-4.8,4.8s-4.8-1.9-4.8-4.8,2.2-4.8,4.8-4.8,4.8,2.1,4.8,4.8Z"/>
  <path class="st0" d="M90.3,1v4.8c2.4-3.4,6.1-5.8,11.6-5.8s14.9,5.8,14.9,18.1-7.7,19.3-15.7,19.3-8-1.6-10.9-5.6v17h-8.7V1h8.8,0ZM90.3,18.6c0,7.2,4.2,11.1,8.8,11.1s9-3.5,9-11.1-4.5-10.9-9-10.9-8.8,3.4-8.8,10.9Z"/>
  <path class="st0" d="M132.1,1v4.8c2.4-3.4,6.1-5.8,11.6-5.8s14.9,5.8,14.9,18.1-7.7,19.3-15.7,19.3-8-1.6-10.9-5.6v17h-8.7V1h8.8,0ZM132.1,18.6c0,7.2,4.2,11.1,8.8,11.1s9-3.5,9-11.1-4.5-10.9-9-10.9-8.8,3.4-8.8,10.9Z"/>
  <path class="st0" d="M177,0c7.2,0,12.4,3.4,14.6,11.7l-7.9,1.3c-.2-4.2-2.7-5.6-6.6-5.6s-5.1,1.3-5.1,3.4,1.1,3.2,4.5,3.9l5.9,1.1c5.8,1.1,9,5,9,10.1,0,7.7-6.9,11.6-13.5,11.6s-14.6-3.5-15.7-12.2l7.9-1.3c.5,4.5,3.2,6.1,7.7,6.1s5.6-1.3,5.6-3.4-1.1-3.4-4.8-4l-5.5-1c-5.8-1.1-9.3-5.1-9.3-10.3C164,3.4,171.2,0,177,0h0Z"/>
</svg>