<?xml version="1.0" encoding="UTF-8"?>
<svg id="Artwork" xmlns="http://www.w3.org/2000/svg" version="1.1" viewBox="0 0 241.8 151.1">
  <!-- Generator: Adobe Illustrator 29.1.0, SVG Export Plug-In . SVG Version: 2.1.0 Build 142)  -->
  <defs>
    <style>
      .st0 {
        fill: #f26522;
      }

      .st1 {
        fill: #fff;
      }

      .st2 {
        fill: #363638;
      }
    </style>
  </defs>
  <rect class="st2" width="241.8" height="151.1" rx="24.2" ry="24.2"/>
  <rect class="st0" width="241.8" height="151.1" rx="24.2" ry="24.2"/>
  <g>
    <path class="st1" d="M34.4,55l8.2,24,8.2-24h9.5l-14.2,35.6h-7.1l-14.2-35.6h9.5,0Z"/>
    <path class="st1" d="M81.6,85c5.9,0,9.3-2.9,12.6-7.1,1.8-2.2,4-2.7,5.6-1.4s1.8,3.7,0,5.9c-4.7,6.1-10.6,9.8-18.2,9.8s-15.4-4.5-20.4-12.4c-1.5-2.1-1.1-4.3.5-5.5,1.6-1.1,4-.6,5.5,1.6,3.5,5.3,8.4,9,14.5,9h0ZM92.7,65.2c0,2.9-2.2,4.8-4.8,4.8s-4.8-1.9-4.8-4.8,2.2-4.8,4.8-4.8,4.8,2.1,4.8,4.8Z"/>
    <path class="st1" d="M115.3,55v4.8c2.4-3.4,6.1-5.8,11.6-5.8s15,5.8,15,18.2-7.7,19.3-15.8,19.3-8.1-1.6-10.9-5.6v17.1h-8.7v-48h8.8,0ZM115.3,72.7c0,7.2,4.2,11.1,8.8,11.1s9-3.5,9-11.1-4.5-10.9-9-10.9-8.8,3.4-8.8,10.9Z"/>
    <path class="st1" d="M157.2,55v4.8c2.4-3.4,6.1-5.8,11.6-5.8s15,5.8,15,18.2-7.7,19.3-15.8,19.3-8.1-1.6-10.9-5.6v17.1h-8.7v-48h8.9,0ZM157.2,72.7c0,7.2,4.2,11.1,8.9,11.1s9-3.5,9-11.1-4.5-10.9-9-10.9-8.9,3.4-8.9,10.9Z"/>
    <path class="st1" d="M202.3,54.1c7.2,0,12.4,3.4,14.6,11.7l-7.9,1.3c-.2-4.2-2.7-5.6-6.6-5.6s-5.1,1.3-5.1,3.4,1.1,3.2,4.5,3.9l5.9,1.1c5.8,1.1,9,5,9,10.1,0,7.7-6.9,11.6-13.5,11.6s-14.6-3.5-15.8-12.2l7.9-1.3c.5,4.5,3.2,6.1,7.7,6.1s5.6-1.3,5.6-3.4-1.1-3.4-4.8-4l-5.5-1c-5.8-1.1-9.3-5.2-9.3-10.3.2-8,7.4-11.4,13.2-11.4h0Z"/>
  </g>
</svg>